<?xml version="1.0" standalone="no"?>
<!DOCTYPE svg PUBLIC "-//W3C//DTD SVG 20010904//EN"
 "http://www.w3.org/TR/2001/REC-SVG-20010904/DTD/svg10.dtd">
<svg version="1.0" xmlns="http://www.w3.org/2000/svg"
 width="494.000000pt" height="494.000000pt" viewBox="0 0 494.000000 494.000000"
 preserveAspectRatio="xMidYMid meet">
<metadata>
Created by potrace 1.14, written by Peter Selinger 2001-2017
</metadata>
<g transform="translate(0.000000,494.000000) scale(0.100000,-0.100000)"
fill="#000000" stroke="none">
<path d="M2045 4930 c-2 -4 -16 -5 -30 -2 -14 2 -25 0 -25 -6 0 -6 -8 -9 -17
-8 -10 2 -21 -1 -24 -6 -3 -5 -16 -10 -27 -11 -12 -1 -22 -5 -22 -9 0 -4 -7
-8 -16 -8 -8 0 -12 -4 -9 -10 3 -5 -1 -10 -9 -10 -9 0 -25 -9 -36 -20 -11 -11
-20 -17 -20 -13 0 4 -7 -3 -16 -15 -18 -27 -26 -62 -14 -62 5 0 7 -6 4 -13 -3
-8 2 -20 11 -27 8 -7 15 -19 15 -26 0 -8 4 -14 8 -14 5 0 9 -7 9 -15 0 -8 -4
-12 -8 -9 -4 2 -11 -1 -16 -9 -4 -7 -27 -27 -50 -46 -24 -18 -43 -39 -43 -46
0 -7 -10 -15 -22 -18 -12 -4 -19 -9 -16 -13 4 -3 -9 -21 -27 -39 -19 -18 -31
-36 -27 -40 4 -5 2 -5 -5 -1 -6 3 -18 -3 -26 -14 -7 -11 -17 -17 -20 -13 -4 3
-7 -2 -7 -12 0 -10 -3 -15 -6 -12 -8 8 -44 -31 -44 -46 0 -6 -3 -7 -7 -4 -3 4
-14 -7 -24 -23 -11 -17 -24 -30 -29 -30 -6 0 -9 -4 -6 -9 3 -5 -1 -11 -9 -15
-8 -3 -15 -13 -15 -21 0 -9 -4 -13 -10 -10 -5 3 -10 2 -10 -3 0 -9 -47 -74
-75 -103 -8 -9 -15 -19 -15 -24 0 -4 -12 -24 -27 -44 -15 -20 -26 -38 -25 -40
2 -2 0 -7 -5 -10 -14 -9 -58 -85 -55 -94 1 -5 -2 -6 -8 -2 -5 3 -15 -6 -21
-22 -5 -15 -13 -30 -17 -33 -6 -4 -22 -31 -56 -95 -6 -11 -13 -22 -16 -25 -12
-11 -40 -60 -35 -60 4 0 -3 -13 -14 -29 -12 -16 -21 -34 -21 -40 0 -6 -4 -11
-8 -11 -4 0 -16 -20 -26 -45 -11 -25 -23 -45 -28 -45 -4 0 -8 -8 -8 -19 0 -10
-7 -24 -15 -31 -8 -7 -25 -33 -37 -59 -13 -25 -26 -47 -30 -49 -5 -2 -8 -12
-8 -23 0 -10 -4 -19 -9 -19 -5 0 -15 -15 -22 -32 -6 -18 -13 -35 -14 -38 -1
-3 -9 -22 -18 -42 -10 -21 -17 -42 -17 -48 0 -5 -5 -10 -11 -10 -6 0 -9 -7 -5
-15 3 -8 1 -15 -4 -15 -6 0 -10 -8 -10 -17 0 -10 -9 -33 -21 -52 -11 -19 -18
-42 -16 -52 4 -13 0 -16 -12 -12 -9 4 -13 2 -8 -2 4 -5 0 -19 -9 -33 -11 -17
-12 -22 -3 -17 8 5 6 -1 -4 -12 -9 -11 -17 -24 -17 -30 0 -6 -7 -23 -14 -39
-8 -15 -13 -31 -10 -36 3 -4 0 -8 -6 -8 -6 0 -8 -4 -5 -10 3 -5 1 -10 -4 -10
-6 0 -10 -3 -9 -7 2 -12 -14 -66 -22 -78 -5 -5 -18 -41 -30 -80 -13 -38 -25
-74 -29 -80 -3 -5 -6 -14 -7 -20 -1 -5 -8 -23 -15 -40 -12 -30 -15 -40 -23
-72 -3 -10 -5 -19 -6 -20 -2 -2 -3 -6 -5 -10 -3 -14 -25 -66 -32 -76 -4 -6 -1
-7 8 -2 11 7 12 6 2 -6 -6 -8 -13 -23 -15 -34 -1 -11 -6 -22 -9 -25 -4 -3 -8
-18 -10 -35 -2 -16 -7 -36 -12 -42 -5 -7 -6 -13 -2 -13 4 0 2 -7 -5 -15 -7 -8
-9 -15 -5 -15 4 0 3 -6 -2 -12 -6 -7 -9 -21 -8 -31 2 -9 0 -17 -4 -17 -6 0
-10 -17 -13 -57 -1 -7 -4 -13 -8 -13 -3 0 -7 -8 -8 -17 -3 -33 -7 -48 -16 -62
-7 -11 -6 -12 5 -6 12 8 12 6 1 -8 -8 -9 -11 -21 -7 -27 3 -5 2 -10 -2 -10 -9
0 -14 -24 -17 -82 0 -20 -4 -34 -8 -31 -8 4 -9 -3 -12 -62 0 -16 -5 -33 -10
-36 -5 -4 -9 -28 -10 -53 0 -25 -3 -46 -6 -46 -6 0 -11 -42 -14 -108 0 -17 -3
-32 -6 -32 -3 0 -6 -13 -6 -30 -1 -20 2 -27 10 -23 6 4 5 -1 -3 -10 -16 -20
-24 -324 -9 -344 5 -7 5 -14 -2 -18 -6 -3 -8 -10 -6 -14 3 -4 6 -28 7 -54 2
-26 6 -47 9 -47 3 0 6 -15 5 -32 0 -18 3 -39 8 -45 5 -7 7 -13 4 -13 -3 0 1
-16 9 -35 8 -19 11 -35 7 -35 -4 0 -2 -5 5 -12 7 -7 12 -20 12 -30 0 -10 5
-18 11 -18 5 0 7 -5 4 -11 -4 -5 1 -19 11 -30 9 -10 13 -19 8 -19 -5 0 0 -7
11 -16 26 -19 8 -31 -45 -30 -22 1 -40 -1 -41 -4 -7 -35 -2 -83 11 -90 20 -10
182 -7 199 4 9 6 12 5 7 -2 -5 -8 7 -9 39 -5 75 9 76 6 74 -191 -2 -251 -8
-226 51 -226 l49 0 3 205 c2 113 -1 206 -6 208 -5 2 47 2 114 2 119 -1 123 -2
125 -23 1 -11 -2 -19 -6 -16 -4 2 -7 -14 -6 -36 2 -22 -1 -40 -6 -40 -5 0 -7
-7 -3 -15 3 -8 2 -15 -2 -15 -4 0 -8 -20 -7 -44 0 -24 -3 -42 -7 -40 -5 3 -8
-5 -9 -18 0 -13 -3 -32 -5 -43 -2 -11 -7 -41 -10 -67 l-6 -48 162 0 c123 0
161 3 158 12 -8 23 -116 42 -172 31 -28 -6 -53 -9 -55 -7 -8 7 22 34 38 34 9
0 31 9 49 20 17 11 32 17 32 13 0 -4 7 2 16 13 8 10 12 13 8 5 -3 -7 19 3 50
23 31 20 61 36 66 36 6 0 10 4 10 10 0 5 11 12 25 16 14 3 25 10 25 16 0 5 5
6 10 3 6 -3 10 -1 10 4 0 6 5 11 11 11 7 0 18 8 26 18 8 9 11 11 7 3 -4 -7 17
5 47 29 30 23 56 46 57 51 2 5 8 7 13 3 5 -3 9 2 9 11 0 9 4 14 9 11 5 -4 19
6 31 21 12 16 18 21 14 13 -7 -12 -5 -13 8 -3 8 7 18 10 21 6 4 -3 14 0 24 8
9 8 14 9 10 2 -9 -15 32 -14 52 1 10 7 13 7 9 1 -5 -7 27 -10 95 -9 56 1 104
2 107 4 3 1 10 1 15 0 26 -7 257 -5 261 2 3 5 11 5 17 1 20 -12 587 -10 579 2
-3 6 0 6 9 -1 9 -7 69 -11 167 -10 85 1 159 -2 165 -6 9 -5 12 -64 12 -205 l0
-198 35 -5 c73 -12 73 -11 65 121 -6 106 -5 119 9 119 9 0 19 -8 22 -17 4 -10
12 -31 19 -48 7 -16 21 -51 31 -77 37 -92 37 -93 175 -96 136 -4 189 2 189 22
0 22 -92 39 -165 31 -55 -5 -65 -4 -65 9 0 8 5 18 10 21 13 8 90 123 90 134 0
5 7 14 15 21 8 7 12 16 9 21 -3 5 0 9 5 9 6 0 11 6 11 14 0 7 7 19 15 26 9 7
14 19 11 27 -3 8 -1 11 4 8 6 -3 10 0 10 8 0 8 9 26 21 41 11 14 17 26 14 26
-4 0 0 11 9 25 9 14 13 25 9 25 -5 0 -1 5 7 10 8 5 15 13 16 17 3 27 18 63 26
63 5 0 8 6 5 13 -2 6 2 24 10 39 7 16 11 28 7 28 -4 0 -1 6 5 13 6 8 13 29 15
48 3 19 8 43 12 53 5 14 4 17 -4 12 -7 -4 -12 -2 -12 3 0 6 5 11 11 11 5 0 8
12 6 28 -7 42 -18 72 -27 72 -5 0 -25 16 -44 35 -20 19 -43 35 -50 35 -8 0
-16 7 -20 15 -3 8 -12 15 -21 15 -8 0 -15 5 -15 10 0 6 -5 10 -12 10 -6 0 -18
6 -27 14 -67 61 -103 98 -105 109 -2 6 -6 19 -9 27 -3 8 -8 35 -11 60 -3 25
-10 63 -15 84 -5 22 -8 43 -5 47 2 4 0 10 -6 14 -5 3 -10 16 -10 29 0 12 -6
28 -12 35 -11 11 -10 12 1 6 10 -6 12 -4 5 6 -9 14 -14 34 -16 57 -1 6 -5 12
-9 12 -4 0 -6 8 -5 18 2 9 -3 31 -9 47 -7 17 -25 64 -40 105 -50 136 -83 210
-95 210 -5 0 -7 6 -4 13 2 7 -5 23 -16 35 -11 12 -18 22 -15 22 3 0 1 9 -5 21
-10 17 -8 24 11 40 12 10 26 19 31 19 5 0 6 5 3 10 -4 6 -2 9 3 8 12 -4 45 18
83 54 16 15 29 25 29 22 0 -4 25 18 55 49 30 30 57 52 60 49 3 -3 5 -1 5 5 0
6 16 27 35 46 19 19 31 37 28 41 -3 3 1 6 10 6 9 0 17 4 17 8 0 5 12 22 28 39
15 18 34 41 42 53 15 22 40 53 62 80 7 8 13 18 13 23 0 4 6 11 13 16 7 4 14
17 15 29 0 11 4 19 8 16 4 -2 18 14 30 36 13 22 26 40 31 40 4 0 8 7 8 15 0 9
9 25 20 37 10 12 17 25 14 30 -3 4 -2 8 3 8 4 0 26 35 48 78 22 42 42 79 45
82 8 8 34 64 35 75 0 6 6 16 13 23 7 8 10 18 7 23 -4 5 -3 9 2 9 11 0 34 51
27 62 -3 5 -2 7 3 6 4 -2 9 2 11 7 4 15 -39 14 -45 -1 -3 -8 -8 -12 -12 -10
-4 3 -29 -7 -56 -21 -28 -14 -59 -27 -69 -29 -11 -2 -23 -9 -28 -16 -4 -7 -8
-10 -8 -5 0 4 -12 -1 -27 -10 -15 -10 -27 -17 -28 -15 0 2 -13 -2 -30 -8 -16
-6 -32 -11 -34 -10 -2 1 -8 -5 -13 -14 -5 -9 -14 -14 -19 -10 -5 3 -21 -2 -34
-10 -14 -9 -25 -13 -25 -10 0 4 -8 0 -17 -9 -18 -16 -21 -17 -49 -17 -8 0 -12
-4 -9 -10 3 -6 -1 -7 -9 -4 -9 3 -16 1 -16 -5 0 -6 -8 -11 -18 -11 -10 0 -22
-3 -26 -7 -7 -8 -11 -9 -37 -12 -5 0 -8 -5 -4 -10 3 -6 -4 -8 -15 -6 -11 2
-20 0 -20 -6 0 -5 -8 -9 -19 -9 -10 0 -24 -7 -31 -15 -7 -8 -16 -13 -20 -10
-5 3 -15 -2 -24 -11 -9 -8 -20 -12 -26 -9 -5 3 -10 1 -10 -6 0 -7 -3 -10 -6
-6 -4 3 -25 -4 -48 -15 -22 -12 -43 -23 -46 -23 -3 -1 -21 -8 -40 -17 -19 -8
-60 -26 -90 -39 -30 -12 -58 -28 -63 -33 -5 -7 -12 -5 -21 6 -7 10 -16 15 -19
11 -4 -3 -7 0 -7 7 0 7 -10 21 -22 31 -11 11 -18 19 -14 19 3 0 -7 14 -24 31
-16 18 -30 36 -30 41 0 5 -5 6 -12 2 -6 -4 -8 -3 -4 4 3 6 1 16 -6 24 -13 13
-20 78 -9 78 4 0 7 15 8 33 3 31 9 69 13 75 2 1 3 5 5 10 14 51 20 62 36 67
11 4 16 11 13 18 -4 7 -4 9 1 5 4 -4 14 -3 22 3 7 6 13 8 13 4 0 -5 9 2 20 15
11 13 20 20 20 16 0 -4 10 3 23 14 12 12 34 29 50 38 15 9 27 20 27 24 0 4 19
21 42 38 22 16 39 30 36 30 -3 0 15 22 41 49 25 26 53 58 61 70 8 13 25 35 37
49 12 14 20 28 18 31 -3 2 4 11 15 18 11 8 18 18 15 23 -3 4 -2 10 3 12 12 5
92 147 92 163 0 8 5 17 11 20 6 4 8 13 5 20 -2 7 2 16 10 19 8 3 14 9 13 13
-1 4 0 10 1 13 1 3 3 12 5 20 2 8 9 29 16 45 7 17 13 38 14 48 2 9 3 18 5 20
3 4 12 41 14 63 1 11 5 24 8 30 11 17 -1 227 -14 249 -3 6 -11 27 -17 48 -7
20 -17 37 -23 37 -6 0 -8 3 -5 6 4 4 -1 20 -10 35 -16 28 -16 29 5 49 12 12
20 25 17 30 -3 5 -1 11 5 15 15 9 12 28 -2 19 -10 -5 -10 -4 -2 5 9 10 8 23
-4 54 -9 23 -20 44 -24 45 -5 2 -8 9 -8 16 0 21 -84 92 -105 88 -29 -4 -66
-23 -98 -49 l-29 -23 -41 22 c-23 13 -44 26 -47 29 -3 4 -16 10 -30 14 -14 4
-33 14 -42 23 -10 8 -18 12 -18 8 0 -3 -18 3 -41 14 -23 12 -47 19 -55 16 -9
-3 -12 -1 -9 4 3 6 -1 11 -9 11 -17 2 -33 5 -41 9 -3 1 -8 3 -12 4 -5 1 -13 4
-19 8 -15 10 -74 21 -101 19 -13 0 -23 4 -23 10 0 6 -8 9 -19 6 -10 -2 -26 0
-35 5 -12 7 -22 5 -33 -4 -9 -7 -14 -8 -10 -2 4 7 0 15 -9 18 -10 4 -13 2 -8
-6 5 -7 3 -8 -6 -3 -17 10 -59 11 -84 2 -10 -4 -15 -3 -11 3 3 6 -1 10 -10 10
-10 0 -13 -5 -9 -12 6 -10 5 -10 -8 -1 -8 7 -18 10 -22 6 -3 -4 -28 -8 -54
-10 -82 -6 -97 -8 -108 -15 -22 -14 -48 -1 -56 29 -4 17 -20 38 -34 48 -15 9
-23 11 -19 4 6 -8 4 -10 -6 -3 -19 12 -38 14 -44 4z"/>
<path d="M3925 3662 c-10 -6 -12 -24 -5 -37 1 -3 4 -9 5 -15 1 -5 4 -13 5 -17
1 -5 1 -23 0 -40 -1 -18 2 -33 7 -33 5 0 9 -10 10 -22 2 -100 3 -109 16 -102
8 5 8 2 -2 -9 -7 -9 -9 -17 -4 -17 5 0 10 -15 10 -32 2 -83 4 -99 12 -93 6 3
9 -7 8 -22 l-2 -28 140 -1 c90 0 143 3 147 10 6 8 8 8 8 0 0 -8 29 -11 87 -10
48 0 102 -4 119 -10 18 -6 48 -11 67 -10 19 1 33 -2 30 -6 -7 -12 103 -15 114
-4 10 10 -20 37 -34 32 -9 -4 -11 -1 -7 6 5 7 0 9 -14 6 -16 -5 -19 -2 -15 11
4 9 2 13 -2 8 -5 -4 -19 0 -33 9 -17 11 -22 12 -16 3 7 -12 5 -12 -9 -1 -9 8
-21 11 -26 8 -5 -4 -12 -2 -16 4 -4 6 -11 7 -17 4 -7 -4 -8 -2 -4 4 4 7 1 12
-9 12 -9 0 -14 4 -10 10 4 6 15 6 31 0 31 -12 37 -12 30 -2 -3 5 1 9 9 9 8 0
12 -4 8 -10 -3 -5 8 -8 23 -7 16 1 31 1 34 0 19 -8 90 -5 90 4 0 12 -40 42
-52 38 -5 -1 -8 3 -8 9 0 5 -5 7 -12 3 -6 -4 -8 -3 -4 4 3 6 15 9 26 7 25 -5
27 23 3 32 -10 4 -20 10 -23 14 -3 4 -16 9 -30 10 -14 2 -27 7 -30 10 -3 4
-18 8 -35 10 -16 2 -36 7 -42 12 -9 6 -13 5 -13 -3 0 -9 -4 -9 -12 -2 -7 6
-40 11 -73 11 -110 2 -222 8 -231 13 -5 3 -39 4 -76 4 -36 -1 -64 2 -62 5 2 4
-2 10 -8 12 -10 4 -10 6 0 6 6 1 12 6 12 12 0 5 -3 8 -7 6 -5 -3 -9 18 -10 46
-2 76 -15 113 -34 102 -5 -3 -6 1 -3 9 3 9 2 16 -2 17 -5 0 -18 2 -29 4 -11 2
-25 1 -30 -3z"/>
</g>
</svg>
